walker_model_states
version=1
nRows=15
nColumns=15
inDegrees=yes

# SIMM Motion File Header:
name walker_model_states
datacolumns 15
datarows 15
otherdata 1
range 0.49562643 0.50257437
endheader
time	planarjoint_/Pelvis_rot/value	planarjoint_/Pelvis_rot/speed	planarjoint_/Pelvis_tx/value	planarjoint_/Pelvis_tx/speed	planarjoint_/Pelvis_ty/value	planarjoint_/Pelvis_ty/speed	LThighToPelvis/LHip_rz/value	LThighToPelvis/LHip_rz/speed	RThighToPelvis/RHip_rz/value	RThighToPelvis/RHip_rz/speed	LShankToLThigh/LKnee_rz/value	LShankToLThigh/LKnee_rz/speed	RShankToRThigh/RKnee_rz/value	RShankToRThigh/RKnee_rz/speed
      0.49562643	     -0.00000000	     -0.00000000	     -0.02867264	     -0.57069245	      0.38764285	     -1.20719774	    102.78368493	    132.64740149	     55.34431194	    121.20856323	   -104.86287405	    -38.35439887	   -138.24716428	   -115.10970345
      0.49576817	     -0.00000000	     -0.00000000	     -0.02875341	     -0.56903131	      0.38747172	     -1.20773895	    102.80249086	    132.72510728	     55.36133657	    119.25711023	   -104.86832426	    -38.55692931	   -138.26461161	   -130.67653425
      0.49595870	     -0.00000000	     -0.00000000	     -0.02886162	     -0.56681260	      0.38724151	     -1.20869418	    102.82779288	    132.86638058	     55.38394805	    118.33102335	   -104.87569874	    -38.85202459	   -138.29123314	   -148.18010420
      0.49620520	     -0.00000000	     -0.00000000	     -0.02900100	     -0.56410976	      0.38694341	     -1.20997230	    102.86056899	    133.06433872	     55.41312364	    118.55540309	   -104.88532188	    -39.22012754	   -138.33009307	   -166.38317858
      0.49645171	     -0.00000000	     -0.00000000	     -0.02913975	     -0.56167083	      0.38664501	     -1.21107898	    102.89339272	    133.24954148	     55.44244281	    119.37595828	   -104.89503060	    -39.54384415	   -138.37294802	   -180.76494426
      0.49676815	     -0.00000000	     -0.00000000	     -0.02931705	     -0.55893243	      0.38626158	     -1.21212854	    102.93559242	    133.45278277	     55.48041059	    120.58206849	   -104.90760041	    -39.88621039	   -138.43250691	   -194.95384373
      0.49716538	     -0.00000000	     -0.00000000	     -0.02953848	     -0.55603240	      0.38577993	     -1.21285003	    102.98864536	    133.65347678	     55.52857891	    121.88263161	   -104.92351299	    -40.21529988	   -138.51264000	   -207.70961401
      0.49766120	     -0.00000000	     -0.00000000	     -0.02981340	     -0.55304349	      0.38517851	     -1.21295176	    103.05496189	    133.83869089	     55.58930805	    122.98681172	   -104.94353032	    -40.51155942	   -138.61842383	   -218.16747828
      0.49815702	     -0.00000000	     -0.00000000	     -0.03008698	     -0.55053276	      0.38457723	     -1.21235021	    103.12135760	    133.97679515	     55.65045286	    123.57948412	   -104.96367242	    -40.72512753	   -138.72833253	   -224.64734144
      0.49880093	     -0.00000000	     -0.00000000	     -0.03044054	     -0.54772008	      0.38379706	     -1.21076149	    103.20767261	    134.11559815	     55.73012298	    123.79159578	   -104.98996458	    -40.92838761	   -138.87468439	   -229.38049006
      0.49944483	     -0.00000000	     -0.00000000	     -0.03079240	     -0.54521807	      0.38301815	     -1.20844937	    103.29406733	    134.22624526	     55.80978094	    123.57044255	   -105.01636976	    -41.08013181	   -139.02318552	   -231.53523237
      0.50029759	     -0.00000000	     -0.00000000	     -0.03125603	     -0.54219040	      0.38198927	     -1.20447403	    103.40857944	    134.33657531	     55.91487104	    122.83079528	   -105.05146699	    -41.22481430	   -139.22096583	   -231.95589370
      0.50134677	     -0.00000000	     -0.00000000	     -0.03182305	     -0.53873553	      0.38072866	     -1.19836722	    103.54956497	    134.40325843	     56.04305301	    121.44693395	   -105.09477808	    -41.32307577	   -139.46352924	   -230.10004407
      0.50196057	     -0.00000000	     -0.00000000	     -0.03215313	     -0.53677648	      0.37999434	     -1.19427162	    103.63206270	    134.40064139	     56.11730849	    120.49798614	   -105.12014935	    -41.34242308	   -139.60425094	   -228.40244554
      0.50257437	     -0.00000000	     -0.00000000	     -0.03248200	     -0.53481199	      0.37926263	     -1.18985841	    103.71454893	    134.36493744	     56.19097062	    119.51646436	   -105.14552560	    -41.33874887	   -139.74390770	   -226.64527629
